<mxfile host="app.diagrams.net" modified="2023-01-09T10:41:04.829Z" agent="5.0 (Windows NT 10.0; Win64; x64) AppleWebKit/537.36 (KHTML, like Gecko) Chrome/108.0.0.0 Safari/537.36" etag="P65-0XbhvuvE0NHximU_" version="20.6.2" type="github">
  <diagram id="C5RBs43oDa-KdzZeNtuy" name="Page-1">
    <mxGraphModel dx="1422" dy="794" grid="1" gridSize="10" guides="1" tooltips="1" connect="1" arrows="1" fold="1" page="1" pageScale="1" pageWidth="827" pageHeight="1169" math="0" shadow="0">
      <root>
        <mxCell id="WIyWlLk6GJQsqaUBKTNV-0" />
        <mxCell id="WIyWlLk6GJQsqaUBKTNV-1" parent="WIyWlLk6GJQsqaUBKTNV-0" />
        <mxCell id="TE3IT55mM2HaOFwmTV_S-1" value="" style="edgeStyle=orthogonalEdgeStyle;rounded=0;orthogonalLoop=1;jettySize=auto;html=1;" edge="1" parent="WIyWlLk6GJQsqaUBKTNV-1" source="WIyWlLk6GJQsqaUBKTNV-3" target="TE3IT55mM2HaOFwmTV_S-0">
          <mxGeometry relative="1" as="geometry" />
        </mxCell>
        <mxCell id="WIyWlLk6GJQsqaUBKTNV-3" value="grouped invoices" style="rounded=1;whiteSpace=wrap;html=1;fontSize=12;glass=0;strokeWidth=1;shadow=0;" parent="WIyWlLk6GJQsqaUBKTNV-1" vertex="1">
          <mxGeometry x="160" y="80" width="120" height="40" as="geometry" />
        </mxCell>
        <mxCell id="TE3IT55mM2HaOFwmTV_S-4" value="Yes" style="edgeStyle=orthogonalEdgeStyle;rounded=0;orthogonalLoop=1;jettySize=auto;html=1;" edge="1" parent="WIyWlLk6GJQsqaUBKTNV-1" source="WIyWlLk6GJQsqaUBKTNV-6" target="TE3IT55mM2HaOFwmTV_S-5">
          <mxGeometry relative="1" as="geometry">
            <mxPoint x="250" y="270" as="targetPoint" />
          </mxGeometry>
        </mxCell>
        <mxCell id="TE3IT55mM2HaOFwmTV_S-9" value="" style="edgeStyle=orthogonalEdgeStyle;rounded=0;orthogonalLoop=1;jettySize=auto;html=1;" edge="1" parent="WIyWlLk6GJQsqaUBKTNV-1" source="WIyWlLk6GJQsqaUBKTNV-6" target="TE3IT55mM2HaOFwmTV_S-8">
          <mxGeometry relative="1" as="geometry" />
        </mxCell>
        <mxCell id="WIyWlLk6GJQsqaUBKTNV-6" value="reserved" style="rhombus;whiteSpace=wrap;html=1;shadow=0;fontFamily=Helvetica;fontSize=12;align=center;strokeWidth=1;spacing=6;spacingTop=-4;" parent="WIyWlLk6GJQsqaUBKTNV-1" vertex="1">
          <mxGeometry x="160" y="230" width="100" height="80" as="geometry" />
        </mxCell>
        <mxCell id="TE3IT55mM2HaOFwmTV_S-2" style="edgeStyle=orthogonalEdgeStyle;rounded=0;orthogonalLoop=1;jettySize=auto;html=1;" edge="1" parent="WIyWlLk6GJQsqaUBKTNV-1" source="TE3IT55mM2HaOFwmTV_S-0" target="WIyWlLk6GJQsqaUBKTNV-6">
          <mxGeometry relative="1" as="geometry" />
        </mxCell>
        <mxCell id="TE3IT55mM2HaOFwmTV_S-0" value="generate reserve number" style="rounded=1;whiteSpace=wrap;html=1;fontSize=12;glass=0;strokeWidth=1;shadow=0;" vertex="1" parent="WIyWlLk6GJQsqaUBKTNV-1">
          <mxGeometry x="160" y="150" width="120" height="40" as="geometry" />
        </mxCell>
        <mxCell id="TE3IT55mM2HaOFwmTV_S-5" value="END" style="strokeWidth=2;html=1;shape=mxgraph.flowchart.start_2;whiteSpace=wrap;" vertex="1" parent="WIyWlLk6GJQsqaUBKTNV-1">
          <mxGeometry x="374" y="250" width="46" height="40" as="geometry" />
        </mxCell>
        <mxCell id="TE3IT55mM2HaOFwmTV_S-11" value="" style="edgeStyle=orthogonalEdgeStyle;rounded=0;orthogonalLoop=1;jettySize=auto;html=1;" edge="1" parent="WIyWlLk6GJQsqaUBKTNV-1" source="TE3IT55mM2HaOFwmTV_S-8" target="TE3IT55mM2HaOFwmTV_S-10">
          <mxGeometry relative="1" as="geometry" />
        </mxCell>
        <mxCell id="TE3IT55mM2HaOFwmTV_S-8" value="begin transaction" style="whiteSpace=wrap;html=1;shadow=0;strokeWidth=1;spacing=6;spacingTop=-4;" vertex="1" parent="WIyWlLk6GJQsqaUBKTNV-1">
          <mxGeometry x="110" y="370" width="120" height="60" as="geometry" />
        </mxCell>
        <mxCell id="TE3IT55mM2HaOFwmTV_S-13" style="edgeStyle=orthogonalEdgeStyle;rounded=0;orthogonalLoop=1;jettySize=auto;html=1;" edge="1" parent="WIyWlLk6GJQsqaUBKTNV-1" source="TE3IT55mM2HaOFwmTV_S-10" target="TE3IT55mM2HaOFwmTV_S-12">
          <mxGeometry relative="1" as="geometry" />
        </mxCell>
        <mxCell id="TE3IT55mM2HaOFwmTV_S-10" value="split invoices by 50 per page" style="whiteSpace=wrap;html=1;shadow=0;strokeWidth=1;spacing=6;spacingTop=-4;" vertex="1" parent="WIyWlLk6GJQsqaUBKTNV-1">
          <mxGeometry x="110" y="470" width="120" height="60" as="geometry" />
        </mxCell>
        <mxCell id="TE3IT55mM2HaOFwmTV_S-16" value="" style="edgeStyle=orthogonalEdgeStyle;rounded=0;orthogonalLoop=1;jettySize=auto;html=1;" edge="1" parent="WIyWlLk6GJQsqaUBKTNV-1" source="TE3IT55mM2HaOFwmTV_S-12" target="TE3IT55mM2HaOFwmTV_S-14">
          <mxGeometry relative="1" as="geometry" />
        </mxCell>
        <mxCell id="TE3IT55mM2HaOFwmTV_S-12" value="50 invoices" style="whiteSpace=wrap;html=1;shadow=0;strokeWidth=1;spacing=6;spacingTop=-4;" vertex="1" parent="WIyWlLk6GJQsqaUBKTNV-1">
          <mxGeometry x="110" y="580" width="120" height="60" as="geometry" />
        </mxCell>
        <mxCell id="TE3IT55mM2HaOFwmTV_S-20" value="" style="edgeStyle=orthogonalEdgeStyle;rounded=0;orthogonalLoop=1;jettySize=auto;html=1;" edge="1" parent="WIyWlLk6GJQsqaUBKTNV-1" source="TE3IT55mM2HaOFwmTV_S-14" target="TE3IT55mM2HaOFwmTV_S-19">
          <mxGeometry relative="1" as="geometry" />
        </mxCell>
        <mxCell id="TE3IT55mM2HaOFwmTV_S-14" value="generate group number from LARA for 50 invoices" style="whiteSpace=wrap;html=1;shadow=0;strokeWidth=1;spacing=6;spacingTop=-4;" vertex="1" parent="WIyWlLk6GJQsqaUBKTNV-1">
          <mxGeometry x="110" y="720" width="120" height="60" as="geometry" />
        </mxCell>
        <mxCell id="TE3IT55mM2HaOFwmTV_S-22" value="failed" style="edgeStyle=orthogonalEdgeStyle;rounded=0;orthogonalLoop=1;jettySize=auto;html=1;" edge="1" parent="WIyWlLk6GJQsqaUBKTNV-1" source="TE3IT55mM2HaOFwmTV_S-19" target="TE3IT55mM2HaOFwmTV_S-21">
          <mxGeometry relative="1" as="geometry">
            <Array as="points">
              <mxPoint x="230" y="890" />
              <mxPoint x="230" y="890" />
            </Array>
          </mxGeometry>
        </mxCell>
        <mxCell id="TE3IT55mM2HaOFwmTV_S-24" value="success" style="edgeStyle=orthogonalEdgeStyle;rounded=0;orthogonalLoop=1;jettySize=auto;html=1;" edge="1" parent="WIyWlLk6GJQsqaUBKTNV-1" source="TE3IT55mM2HaOFwmTV_S-19" target="TE3IT55mM2HaOFwmTV_S-23">
          <mxGeometry relative="1" as="geometry" />
        </mxCell>
        <mxCell id="TE3IT55mM2HaOFwmTV_S-19" value="" style="rhombus;whiteSpace=wrap;html=1;shadow=0;strokeWidth=1;spacing=6;spacingTop=-4;" vertex="1" parent="WIyWlLk6GJQsqaUBKTNV-1">
          <mxGeometry x="140" y="870" width="60" height="50" as="geometry" />
        </mxCell>
        <mxCell id="TE3IT55mM2HaOFwmTV_S-21" value="50 invoice ncc failed log to invoice_tracker" style="whiteSpace=wrap;html=1;shadow=0;strokeWidth=1;spacing=6;spacingTop=-4;" vertex="1" parent="WIyWlLk6GJQsqaUBKTNV-1">
          <mxGeometry x="354" y="865" width="120" height="60" as="geometry" />
        </mxCell>
        <mxCell id="TE3IT55mM2HaOFwmTV_S-28" value="" style="edgeStyle=orthogonalEdgeStyle;rounded=0;orthogonalLoop=1;jettySize=auto;html=1;" edge="1" parent="WIyWlLk6GJQsqaUBKTNV-1" source="TE3IT55mM2HaOFwmTV_S-23" target="TE3IT55mM2HaOFwmTV_S-27">
          <mxGeometry relative="1" as="geometry" />
        </mxCell>
        <mxCell id="TE3IT55mM2HaOFwmTV_S-23" value="update group no and ncc success log to 50 invoice" style="whiteSpace=wrap;html=1;shadow=0;strokeWidth=1;spacing=6;spacingTop=-4;" vertex="1" parent="WIyWlLk6GJQsqaUBKTNV-1">
          <mxGeometry x="110" y="1020" width="120" height="60" as="geometry" />
        </mxCell>
        <mxCell id="TE3IT55mM2HaOFwmTV_S-25" value="&lt;font color=&quot;#000000&quot;&gt;&lt;span style=&quot;font-size: 12px;&quot;&gt;1) pl/sql exception&lt;/span&gt;&lt;/font&gt;&amp;nbsp;&lt;br&gt;2)&amp;nbsp;Unavailable sub-invoice(s) (already invoiced)&lt;br&gt;single error whole error" style="shape=note;strokeWidth=2;fontSize=14;size=20;whiteSpace=wrap;html=1;fillColor=#fff2cc;strokeColor=#d6b656;fontColor=#666600;align=left;" vertex="1" parent="WIyWlLk6GJQsqaUBKTNV-1">
          <mxGeometry x="258" y="740" width="292" height="90" as="geometry" />
        </mxCell>
        <mxCell id="TE3IT55mM2HaOFwmTV_S-26" value="" style="endArrow=none;html=1;rounded=0;" edge="1" parent="WIyWlLk6GJQsqaUBKTNV-1" target="TE3IT55mM2HaOFwmTV_S-25">
          <mxGeometry width="50" height="50" relative="1" as="geometry">
            <mxPoint x="240" y="890" as="sourcePoint" />
            <mxPoint x="110" y="890" as="targetPoint" />
          </mxGeometry>
        </mxCell>
        <mxCell id="TE3IT55mM2HaOFwmTV_S-30" value="" style="edgeStyle=orthogonalEdgeStyle;rounded=0;orthogonalLoop=1;jettySize=auto;html=1;" edge="1" parent="WIyWlLk6GJQsqaUBKTNV-1" source="TE3IT55mM2HaOFwmTV_S-27" target="TE3IT55mM2HaOFwmTV_S-29">
          <mxGeometry relative="1" as="geometry" />
        </mxCell>
        <mxCell id="TE3IT55mM2HaOFwmTV_S-27" value="reserved data save to db (total)" style="whiteSpace=wrap;html=1;shadow=0;strokeWidth=1;spacing=6;spacingTop=-4;" vertex="1" parent="WIyWlLk6GJQsqaUBKTNV-1">
          <mxGeometry x="110" y="1160" width="120" height="60" as="geometry" />
        </mxCell>
        <mxCell id="TE3IT55mM2HaOFwmTV_S-29" value="commit transaction" style="whiteSpace=wrap;html=1;shadow=0;strokeWidth=1;spacing=6;spacingTop=-4;" vertex="1" parent="WIyWlLk6GJQsqaUBKTNV-1">
          <mxGeometry x="110" y="1270" width="120" height="60" as="geometry" />
        </mxCell>
        <mxCell id="TE3IT55mM2HaOFwmTV_S-31" value="" style="endArrow=classic;html=1;rounded=0;" edge="1" parent="WIyWlLk6GJQsqaUBKTNV-1">
          <mxGeometry width="50" height="50" relative="1" as="geometry">
            <mxPoint x="170" y="1130" as="sourcePoint" />
            <mxPoint x="170" y="550" as="targetPoint" />
            <Array as="points">
              <mxPoint x="30" y="1130" />
              <mxPoint x="30" y="550" />
            </Array>
          </mxGeometry>
        </mxCell>
      </root>
    </mxGraphModel>
  </diagram>
</mxfile>
